<svg width="760" height="760" viewBox="0 0 760 760" fill="none" xmlns="http://www.w3.org/2000/svg">
  <rect width="760" height="760" rx="28" fill="#0F172A"/>
  <circle cx="164" cy="132" r="98" fill="#1E293B"/>
  <circle cx="642" cy="612" r="120" fill="#1E293B"/>
  <rect x="118" y="144" width="524" height="472" rx="24" fill="#111827" stroke="rgba(255,255,255,0.08)"/>

  <rect x="164" y="194" width="432" height="118" rx="16" fill="#1F2937"/>
  <text x="188" y="236" fill="#94A3B8" font-family="Inter, Arial, sans-serif" font-size="20">Monthly Savings</text>
  <text x="188" y="286" fill="#E2E8F0" font-family="Inter, Arial, sans-serif" font-size="44" font-weight="700">$3,480</text>

  <rect x="164" y="334" width="432" height="110" rx="16" fill="#1F2937"/>
  <rect x="190" y="380" width="380" height="16" rx="8" fill="rgba(255,255,255,0.1)"/>
  <rect x="190" y="380" width="240" height="16" rx="8" fill="#34D399"/>
  <text x="190" y="365" fill="#94A3B8" font-family="Inter, Arial, sans-serif" font-size="16">Goal Progress</text>

  <rect x="164" y="462" width="432" height="110" rx="16" fill="#1F2937"/>
  <path d="M194 534C240 510 286 506 324 482C358 462 406 470 442 448C478 428 528 430 566 404" stroke="#60A5FA" stroke-width="6" stroke-linecap="round"/>
  <circle cx="566" cy="404" r="8" fill="#60A5FA"/>
</svg>
