<svg width="960" height="620" viewBox="0 0 960 620" fill="none" xmlns="http://www.w3.org/2000/svg">
  <rect width="960" height="620" rx="24" fill="#0F172A"/>
  <rect x="38" y="38" width="884" height="544" rx="18" fill="#111827" stroke="rgba(255,255,255,0.08)"/>
  <rect x="76" y="78" width="290" height="120" rx="14" fill="#1F2937"/>
  <rect x="384" y="78" width="238" height="120" rx="14" fill="#1F2937"/>
  <rect x="640" y="78" width="242" height="120" rx="14" fill="#1F2937"/>
  <rect x="76" y="224" width="534" height="222" rx="14" fill="#1F2937"/>
  <rect x="628" y="224" width="254" height="222" rx="14" fill="#1F2937"/>
  <rect x="76" y="468" width="806" height="74" rx="14" fill="#1F2937"/>

  <text x="98" y="116" fill="#94A3B8" font-family="Inter, Arial, sans-serif" font-size="18">Total Balance</text>
  <text x="98" y="162" fill="#E2E8F0" font-family="Inter, Arial, sans-serif" font-size="40" font-weight="700">$18,725</text>

  <text x="404" y="116" fill="#94A3B8" font-family="Inter, Arial, sans-serif" font-size="18">Income</text>
  <text x="404" y="162" fill="#6EE7B7" font-family="Inter, Arial, sans-serif" font-size="34" font-weight="700">$21,250</text>

  <text x="660" y="116" fill="#94A3B8" font-family="Inter, Arial, sans-serif" font-size="18">Expenses</text>
  <text x="660" y="162" fill="#FCA5A5" font-family="Inter, Arial, sans-serif" font-size="34" font-weight="700">$2,525</text>

  <path d="M108 390C150 330 188 354 232 320C276 286 322 298 370 270C416 244 458 266 506 234C526 221 544 210 576 202" stroke="#60A5FA" stroke-width="6" stroke-linecap="round"/>
  <circle cx="576" cy="202" r="8" fill="#60A5FA"/>

  <rect x="656" y="270" width="198" height="18" rx="9" fill="rgba(255,255,255,0.08)"/>
  <rect x="656" y="270" width="122" height="18" rx="9" fill="#34D399"/>
  <text x="656" y="252" fill="#94A3B8" font-family="Inter, Arial, sans-serif" font-size="16">Spending Health</text>
  <text x="656" y="328" fill="#E2E8F0" font-family="Inter, Arial, sans-serif" font-size="28" font-weight="700">Healthy</text>

  <circle cx="116" cy="503" r="7" fill="#334155"/>
  <rect x="134" y="495" width="220" height="16" rx="8" fill="#334155"/>
  <rect x="370" y="495" width="120" height="16" rx="8" fill="#334155"/>
  <rect x="508" y="495" width="178" height="16" rx="8" fill="#334155"/>
</svg>
